# xmcd CD database file
#
# Track frame offsets:
#	150
#	24847
#	54959
#	88036
#	111238
#	141450
#	169052
#	180299
#	185871
#	208061
#	230716
#	248836
#	268451
#	290151
#	302286
#	320061
#	340796
#
# Disc length: 4734 seconds
#
# Revision: 2
# Processed by: cddbd v1.5.1PL2 Copyright (c) Steve Scherf et al.
# Submitted via: CDex 1.51
#
DISCID=01127c11
DTITLE=Oscar Peterson, Ray Brown, Ed Thigpen - The Final Concerts
DYEAR=1964
DGENRE=Jazz
TTITLE0=Younger Than Spring Time
TTITLE1=Misty
TTITLE2=Django
TTITLE3=The Smudge
TTITLE4=Autumn Leaves
TTITLE5=Moanin'
TTITLE6=Lovers Promenade
TTITLE7=CHildren's Tune
TTITLE8=Hallelujah Time
TTITLE9=Con Alma
TTITLE10=Waltz For Debby
TTITLE11=Cubano Chant
TTITLE12=Yours Is My Heart Alone
TTITLE13=Place St. Henri
TTITLE14=My One And Only Love
TTITLE15=Nighingale
TTITLE16=Reunion Blues
EXTD=YEAR: 1964
EXTT0=
EXTT1=
EXTT2=
EXTT3=
EXTT4=
EXTT5=
EXTT6=
EXTT7=
EXTT8=
EXTT9=
EXTT10=
EXTT11=
EXTT12=
EXTT13=
EXTT14=
EXTT15=
EXTT16=
PLAYORDER=
